<?xml version="1.0" encoding="UTF-8"?>
<!-- Generator: Adobe Illustrator 22.0.0, SVG Export Plug-In . SVG Version: 6.00 Build 0)  -->
<svg version="1.1" id="Layer_1" xmlns="http://www.w3.org/2000/svg" xmlns:xlink="http://www.w3.org/1999/xlink" x="0px" y="0px" width="276.5px" height="51px" viewBox="0 0 276.5 51" style="enable-background:new 0 0 276.5 51;" xml:space="preserve">
<style type="text/css">
	.st0{fill:#FFFFFF;}
</style>
<path class="st0" d="M25.4,49.8h-10L2.7,14.7h9.8l7.8,23.8l7.8-23.8h9.8L25.4,49.8z"/>
<path class="st0" d="M46.1,35.4c1.1,4.2,5.1,6.8,10.7,6.8c6.4,0,12.4-0.1,12.4-0.1v7.6c0,0-4.9,0-13.4,0c-9.8,0-19.7-5.9-19.7-17.5  c0-10.5,8.3-18.7,17.9-18.7c9.1,0,15.6,6.9,15.6,16.6v5.2C69.7,35.4,46.1,35.4,46.1,35.4z M54.2,21.4c-4.2,0-7.1,3.3-7.8,7.3h14.4  C60.7,25.3,58.4,21.4,54.2,21.4z"/>
<path class="st0" d="M90.7,22.2c-4.1,0-6.9,3.5-8,4.4v23.2h-9.5V14.7h9.5l0.1,2.1c0.6-0.8,3.6-2.9,9.3-2.9c2.3,0,3.7,0.8,4.2,1.1v9  C95.5,23.4,93.6,22.2,90.7,22.2z"/>
<path class="st0" d="M100,49.8V14.7h10v35.1H100L100,49.8z"/>
<path class="st0" d="M263,49.8V28.3c0-4.2-2.5-6.2-5.9-6.2S250,26.2,249,27v22.7h-10V1.2h10v16.6c1.2-1.1,4.9-4.2,11-4.2  c7.5,0,12.9,4.9,12.9,14.5v21.7C272.9,49.8,263,49.8,263,49.8z"/>
<path class="st0" d="M142.7,42.6c-0.1-0.9-0.1-1.8-0.1-2.6c-2.2,1-5.4,2.1-8.6,2.1c-6.9,0-11.3-4.1-11.3-9.8c0-5.8,4.4-10,11.3-10  c5.1,0,7.5,1.6,9.1,2.4l1.7-7.6c-1.5-0.8-6.4-3.4-12.5-3.4c-11.2,0-19.6,8-19.6,18.7c0,10.8,8.6,18.5,19.6,18.5  c6.9,0,11-2.5,12.7-3.5C143.8,46.2,143,44.5,142.7,42.6z"/>
<path class="st0" d="M222.2,50.9c-11,0-19.6-7.6-19.6-18.5c0-10.7,8.5-18.7,19.6-18.7c6.2,0,11,2.6,12.5,3.4v8.5  c-1.7-0.8-5.8-3.2-10.8-3.2c-6.9,0-11.3,4.2-11.3,10c0,5.7,4.5,9.8,11.3,9.8c4.8,0,9.5-2.5,11-3.3v8.6  C233.2,48.3,229.1,50.9,222.2,50.9z"/>
<path class="st0" d="M162.8,43.9c-1.6,1.6-4.3,1.6-5.4,0.2l-4.5-5.8c-1.8-2.3,2-4.6,3-3.3l3.1,3.9l0,0c0.6,0.8,1.1,0.8,1.7,0.3l0,0  l15.8-14.1V14.7h-26.4l-1.5,7.6h18.2v5.1l-5.4,0.4c-7.8,0.6-14.8,4-14.8,11.9c0,6.3,5.1,11.2,11.7,11.2c4.6,0,7.6-1.9,9.3-3.5  l0.5,2.5h8.6V31.7L162.8,43.9z"/>
<g>
	<polygon class="st0" points="191.5,11.6 191.5,1.2 181.6,1.2 181.6,14.7 181.6,20.6  "/>
	<path class="st0" d="M204.3,48.3c-2.1-2.1-3.6-4.5-4.5-7.3c-0.4,0.2-1,0.4-1.6,0.6c-3.8,0.7-6.6,0.4-6.6-6.2V22.2h9.5l1.7-7.6h-7.1   l-14.1,12.6v8.1c0,11.8,5.9,15.6,12.7,15.6c3.9,0,8.4-1.7,10.1-2.4L204.3,48.3z"/>
</g>
<head xmlns=""/></svg>