<?xml version="1.0" encoding="utf-8"?>
<svg version="1.1" xmlns="http://www.w3.org/2000/svg" xmlns:xlink="http://www.w3.org/1999/xlink" x="0px"
	 y="0px" viewBox="0 0 200 200" style="enable-background:new 0 0 200 200;" xml:space="preserve">
<style type="text/css">
	.st0{fill-rule:evenodd;clip-rule:evenodd;fill:#CC0000;}
</style>
<g transform="translate(8 8)">
	<path class="st0" d="M158,113.7v8.1h14.7c3,0,8.2-2.2,8.4-8.4v-3.1c0-5.3-4.3-8.4-8.4-8.4h-7.3v-3.8h14.5V90h-13.9
		c-3.6,0-8.4,3-8.4,8.5v2.8c0,5.5,4.8,8.4,8.4,8.4c10.1,0-2.4,0,6.9,0v4 M79.1,111.8c0,0,7.9-0.7,7.9-10.8s-9.5-11.1-9.5-11.1H60.3
		v32.1h8.6v-7.7l7.5,7.7h12.8L79.1,111.8z M75.8,105.2h-6.9v-7.3h6.9c0,0,1.9,0.7,1.9,3.6C77.8,104.4,75.8,105.2,75.8,105.2z
		 M108.3,90h-8.8c-6.3,0-8.4,5.7-8.4,8.4v23.5h8.8v-5.6h8.2v5.6h8.5V98.4C116.7,91.5,110.5,90,108.3,90z M108.2,107.2h-8.3v-7.8
		c0,0,0-1.8,2.7-1.8h3c2.4,0,2.5,1.8,2.5,1.8L108.2,107.2C108.2,107.2,108.2,107.2,108.2,107.2z"/>
	<rect x="120.7" y="90" class="st0" width="9.1" height="31.9"/>
	<polygon class="st0" points="142.7,113.6 142.7,90 133.6,90 133.6,113.6 133.6,121.9 142.7,121.9 155,121.9 155,113.6 	"/>
	<path class="st0" d="M6,121.9h35.5c0,0-6.8-31,15.7-43.6c4.9-2.4,20.5-11.3,46.1,7.6c0.8-0.7,1.6-1.2,1.6-1.2S81.6,61.4,55.5,64
		c-13.1,1.2-29.2,13.1-38.7,28.8S6,121.9,6,121.9z"/>
	<path class="st0" d="M6,121.9h35.5c0,0-6.8-31,15.7-43.6c4.9-2.4,20.5-11.3,46.1,7.6c0.8-0.7,1.6-1.2,1.6-1.2S81.6,61.4,55.5,64
		c-13.1,1.2-29.2,13.1-38.7,28.8S6,121.9,6,121.9z"/>
	<path class="st0" d="M6,121.9h35.5c0,0-6.8-31,15.7-43.6c4.9-2.4,20.5-11.3,46.1,7.6c0.8-0.7,1.6-1.2,1.6-1.2S81.6,61.4,55.5,64
		c-13.1,1.2-29.3,13.1-38.7,28.8S6,121.9,6,121.9z M80.1,66.5l0.2-3c-0.4-0.2-1.5-0.8-4.4-1.6l-0.2,3C77.2,65.4,78.7,65.9,80.1,66.5
		z"/>
	<path class="st0" d="M75.8,76l-0.2,2.8c1.5,0,3,0.2,4.5,0.5l0.2-2.8C78.8,76.3,77.3,76.1,75.8,76z M59.2,62h0.4l-0.9-2.7
		c-1.4,0-2.8,0.1-4.3,0.3l0.9,2.7C56.6,62,57.9,62,59.2,62z M61.4,78.5l1,3.1c1.3-0.6,2.6-1.2,3.9-1.6l-1-3
		C63.8,77.6,62.5,78,61.4,78.5z M40.9,66.7l-2-3.1c-1.1,0.6-2.3,1.2-3.5,1.9l2.1,3.2C38.6,68,39.8,67.3,40.9,66.7z M50.1,87l2.2,3.2
		C53.1,89.1,54,88,55,87l-2-3.1C51.9,84.9,51,85.9,50.1,87z M43.6,101.4l3.6,2.9c0.2-1.8,0.5-3.5,0.9-5.3L45,96.5
		C44.4,98.2,44,99.8,43.6,101.4z M23.9,80.1l-3.2-2.8c-1.2,1.1-2.3,2.2-3.3,3.4l3.5,3C21.8,82.4,22.8,81.2,23.9,80.1z M10.3,100.2
		l-5.2-1.9c-0.9,1.9-1.8,4.2-2.2,5.4l5.2,1.9C8.7,104.1,9.6,101.9,10.3,100.2z M42.9,112.9c0.1,2.4,0.3,4.3,0.5,5.7l5.4,1.9
		c-0.4-1.8-0.8-3.7-1.1-5.8L42.9,112.9z"/>
</g>
</svg>
